# xmcd
#
# Track frame offsets:
#	150
#	3326
#	28372
#	52257
#	74752
#	97487
#	119449
#	152583
#	175264
#
# Disc length: 2668
#
# Revision: 1
# Processed by: cddbd v1.5.1PL0 Copyright (c) Steve Scherf et al.
# Submitted via: CDex 1.51
# Normalized: r0:TRMNUM
#
DISCID=860a6a09
DTITLE=Jamey Aebersold - Volume 13 - Cannonball Adderley
DYEAR=1900
DGENRE=Jazz
TTITLE0=Tuning Notes
TTITLE1=Work Song
TTITLE2=Del Sasser
TTITLE3=Scotch and Water
TTITLE4=Saudade
TTITLE5=Unit 7
TTITLE6=Cannon-Aid
TTITLE7=Jeannine
TTITLE8=Sack of Woe
EXTD=
EXTT0=
EXTT1=
EXTT2=
EXTT3=
EXTT4=
EXTT5=
EXTT6=
EXTT7=
EXTT8=
PLAYORDER=
